<svg version="1.1" id="Layer_1" xmlns="http://www.w3.org/2000/svg" xmlns:xlink="http://www.w3.org/1999/xlink" x="0px" y="0px"
	 width="100%" viewBox="0 0 2048 2048" enable-background="new 0 0 2048 2048" xml:space="preserve">
<path fill="#FEFFFF" opacity="1.000000" stroke="none" 
	d="
M1299.000000,2049.000000 
	C866.000000,2049.000000 433.500000,2049.000000 1.000000,2049.000000 
	C1.000000,1366.333374 1.000000,683.666687 1.000000,1.000000 
	C683.666687,1.000000 1366.333374,1.000000 2049.000000,1.000000 
	C2049.000000,683.666687 2049.000000,1366.333374 2049.000000,2049.000000 
	C1799.166626,2049.000000 1549.333374,2049.000000 1299.000000,2049.000000 
M630.827087,1160.652710 
	C681.529663,1245.639526 732.215271,1330.636597 782.940125,1415.610107 
	C824.005615,1484.402466 865.145630,1553.150391 906.126099,1621.993408 
	C908.106201,1625.319824 910.199524,1626.487427 914.013611,1626.483521 
	C1014.509094,1626.382324 1115.004639,1626.381470 1215.500000,1626.482788 
	C1219.451172,1626.486816 1221.735718,1625.388184 1223.838867,1621.868896 
	C1281.792480,1524.893311 1339.887573,1428.002197 1397.937012,1331.083740 
	C1455.388428,1235.163574 1512.820923,1139.232056 1570.252197,1043.299927 
	C1627.674194,947.383179 1685.059937,851.444641 1742.507812,755.543335 
	C1794.639648,668.516174 1846.835083,581.527100 1898.984741,494.510498 
	C1899.718506,493.286316 1900.222778,491.924500 1901.280640,489.678986 
	C1898.366699,489.678986 1896.282715,489.678986 1894.198730,489.678986 
	C1790.703369,489.678986 1687.207642,489.798157 1583.713379,489.456665 
	C1575.270142,489.428833 1570.906372,491.948364 1566.774414,499.257538 
	C1491.994141,631.541138 1416.922485,763.660034 1341.892700,895.802551 
	C1263.978882,1033.024048 1186.044189,1170.233521 1108.117188,1307.447510 
	C1097.171875,1326.719849 1086.278442,1346.022217 1075.180542,1365.206421 
	C1074.007935,1367.233276 1071.556641,1369.900391 1069.797485,1369.829102 
	C1067.953979,1369.754395 1065.704346,1367.034180 1064.529419,1364.961670 
	C1029.112427,1302.486450 993.817078,1239.942383 958.481201,1177.421265 
	C900.930237,1075.594116 843.364929,973.774963 785.803955,871.953369 
	C774.978882,852.804565 764.232361,833.609985 753.200989,814.580688 
	C751.898926,812.334595 749.044800,809.531555 746.858093,809.486023 
	C729.746765,809.129639 712.622681,809.391785 695.502563,809.447693 
	C678.895630,809.501953 662.288696,809.562927 645.681763,809.574646 
	C629.740234,809.585876 613.798706,809.526855 597.857178,809.518494 
	C578.257324,809.508240 558.657532,809.524170 539.057678,809.518005 
	C523.116333,809.513000 507.174927,809.477356 491.233551,809.482666 
	C477.619049,809.487183 464.004547,809.536987 450.390045,809.554626 
	C441.301636,809.566406 432.213226,809.556824 422.109344,809.556824 
	C423.229614,811.998047 423.772675,813.501831 424.567383,814.858215 
	C428.104950,820.895447 431.713196,826.891357 435.298248,832.900757 
	C500.349609,941.942993 565.401306,1050.984985 630.827087,1160.652710 
M1527.732422,1847.700073 
	C1539.425293,1852.394531 1550.832764,1858.076904 1562.876587,1861.557739 
	C1582.150391,1867.128540 1601.689209,1872.101562 1621.413452,1875.694580 
	C1637.278809,1878.584717 1653.563721,1879.986572 1669.700317,1880.344849 
	C1686.052124,1880.707520 1702.525269,1879.684204 1718.806763,1877.960327 
	C1733.976074,1876.354248 1749.121338,1873.719482 1763.998291,1870.317627 
	C1796.884277,1862.797607 1827.766724,1849.963257 1857.042969,1833.215088 
	C1879.041748,1820.630249 1899.620239,1805.989990 1918.252686,1788.887817 
	C1938.231812,1770.549316 1956.536743,1750.589111 1972.058228,1728.201782 
	C1989.965332,1702.374146 2004.946045,1675.005981 2016.376465,1645.709473 
	C2024.226440,1625.589722 2030.793457,1605.083496 2034.247925,1583.724854 
	C2036.822998,1567.804077 2040.066650,1551.857056 2040.852905,1535.815918 
	C2041.786011,1516.775513 2040.905396,1497.593872 2039.848999,1478.526611 
	C2039.149902,1465.908447 2037.432617,1453.251709 2034.989746,1440.844727 
	C2029.569336,1413.316040 2020.891968,1386.774902 2009.072388,1361.265991 
	C1991.347534,1323.012817 1967.600098,1289.017090 1937.850464,1259.160522 
	C1922.470947,1243.725464 1905.730591,1229.958130 1887.890381,1217.484131 
	C1863.907959,1200.715576 1838.320435,1186.940674 1811.018799,1176.417480 
	C1784.775513,1166.302368 1757.829346,1158.888184 1729.721436,1156.288086 
	C1716.085083,1155.026611 1702.445801,1153.491455 1688.774902,1153.000488 
	C1677.845825,1152.608032 1666.845825,1153.307495 1655.915283,1154.068359 
	C1643.401611,1154.939575 1630.697388,1155.309448 1618.492676,1157.877563 
	C1598.697510,1162.042480 1579.018799,1167.103271 1559.699951,1173.102417 
	C1536.245361,1180.385620 1517.149902,1193.876587 1504.991577,1216.083130 
	C1499.395508,1226.303833 1492.935425,1236.051025 1486.878906,1246.020142 
	C1433.839722,1333.321899 1380.854614,1420.656616 1327.720581,1507.900635 
	C1317.662842,1524.415283 1316.018311,1542.645752 1317.410889,1560.981201 
	C1318.410889,1574.146973 1321.875610,1587.215332 1325.121948,1600.105225 
	C1339.064087,1655.464844 1363.618774,1705.515259 1400.183838,1749.610596 
	C1415.761230,1768.395874 1432.949951,1785.501709 1451.838745,1800.801392 
	C1474.893188,1819.474854 1499.858765,1835.278931 1527.732422,1847.700073 
M103.814636,1582.747070 
	C104.069229,1584.210205 104.258919,1585.688110 104.587997,1587.134277 
	C111.335587,1616.790039 121.083847,1645.391846 134.084396,1672.922119 
	C149.636871,1705.856323 169.698364,1735.792480 194.161469,1762.647095 
	C208.940094,1778.870483 225.194855,1793.623047 242.730255,1806.987793 
	C274.221619,1830.989136 308.675659,1849.266846 346.137085,1861.885132 
	C365.013092,1868.243286 384.242523,1873.343628 404.051239,1875.911255 
	C416.793823,1877.563110 429.527588,1879.932251 442.320953,1880.375977 
	C457.721649,1880.910156 473.228210,1880.343384 488.601990,1879.140991 
	C503.356476,1877.987183 518.066895,1875.812744 532.676636,1873.368896 
	C556.263245,1869.423584 578.894775,1861.979614 600.844604,1852.630249 
	C651.837769,1830.910156 695.543579,1799.142090 731.956604,1757.253540 
	C745.939148,1741.168579 758.601257,1724.161499 769.489502,1705.911865 
	C793.783691,1665.192505 811.461609,1621.939209 818.709351,1574.753540 
	C821.463074,1556.825195 820.865845,1539.564209 811.317200,1523.518311 
	C803.477600,1510.344360 795.363525,1497.328003 787.805176,1483.995728 
	C785.217896,1479.432007 782.172058,1478.058105 777.072449,1478.060913 
	C552.762268,1478.184204 328.451996,1478.167969 104.141724,1478.168579 
	C102.517654,1478.168579 100.893585,1478.168579 98.621162,1478.168579 
	C98.166542,1482.710571 97.551147,1486.779541 97.398949,1490.865723 
	C97.169571,1497.023926 97.096886,1503.198486 97.254654,1509.358521 
	C97.603340,1522.973145 97.655319,1536.621948 98.749557,1550.182373 
	C99.608910,1560.832031 101.849503,1571.370239 103.814636,1582.747070 
M334.500549,1465.250732 
	C481.619263,1465.250732 628.737976,1465.250732 777.074341,1465.250732 
	C775.383179,1462.186890 774.489441,1460.454712 773.494934,1458.782715 
	C752.543274,1423.557129 731.583862,1388.336182 710.619019,1353.118408 
	C656.758972,1262.641602 602.876831,1172.178101 549.098633,1081.652710 
	C546.840820,1077.852173 544.103271,1075.638306 539.726929,1075.270996 
	C516.015503,1073.281006 492.337860,1070.127075 468.591614,1069.486816 
	C430.860687,1068.469604 393.423767,1072.638184 356.391235,1080.070923 
	C276.139771,1096.177734 201.858643,1126.579468 134.541504,1173.355835 
	C90.258911,1204.126343 51.397552,1240.524170 21.030741,1285.435181 
	C14.594144,1294.954590 9.936269,1305.258789 9.906136,1317.028931 
	C9.786281,1363.845703 9.740639,1410.662720 9.737520,1457.479736 
	C9.736971,1465.740234 9.985791,1465.767090 18.121761,1465.717529 
	C49.433102,1465.526611 80.744621,1465.266113 112.056244,1465.242310 
	C185.870987,1465.186035 259.685822,1465.250610 334.500549,1465.250732 
M664.483032,789.864502 
	C693.264221,790.658691 722.044312,792.047729 750.826782,792.097351 
	C787.271057,792.160156 823.746033,791.815369 860.149414,790.270996 
	C876.757874,789.566345 893.400085,786.368774 909.710083,782.838196 
	C926.221313,779.264160 940.792908,771.622864 948.960510,755.527710 
	C955.948547,741.757324 953.912781,734.839233 943.856567,727.220459 
	C933.518250,719.387939 921.408508,715.936584 909.183594,714.049866 
	C880.364014,709.601990 851.357117,706.374756 822.436768,702.571960 
	C796.549316,699.167908 770.817688,695.047913 745.979736,686.543884 
	C720.546875,677.836060 697.822754,664.989990 678.975952,645.420288 
	C665.011902,630.920715 650.718445,616.684814 635.853943,603.117920 
	C609.305054,578.886597 578.515015,562.996521 542.558594,557.737366 
	C525.983765,555.313110 509.402344,554.729065 492.867615,556.947510 
	C462.585236,561.010376 435.766113,573.902161 411.614075,591.955566 
	C394.732056,604.574707 378.466278,618.182251 363.050018,632.554749 
	C345.630646,648.794739 329.289398,666.248230 319.685089,688.698120 
	C314.778442,700.167175 312.019348,712.190857 312.595551,724.614746 
	C313.237579,738.458374 319.464478,750.494568 327.182983,761.663452 
	C330.078369,765.853149 333.549377,769.902161 337.525757,773.043274 
	C355.074432,786.905640 375.886017,792.499023 397.576202,794.821045 
	C409.289246,796.075012 421.185760,795.917542 432.997681,795.876343 
	C451.813446,795.810669 470.632660,795.483887 489.441254,794.947083 
	C509.547546,794.373413 529.645081,793.471985 549.742981,792.632629 
	C567.850159,791.876404 585.945557,790.705200 604.059387,790.274841 
	C623.860962,789.804199 643.677856,789.973877 664.483032,789.864502 
M1141.500000,1041.787964 
	C1174.829712,1041.802002 1208.159424,1041.769043 1241.488770,1041.894775 
	C1245.283813,1041.909180 1247.474121,1040.621094 1249.434692,1037.305908 
	C1268.947754,1004.311951 1288.643677,971.426147 1308.255493,938.490601 
	C1308.881958,937.438354 1309.161499,936.179626 1309.792480,934.517578 
	C1150.580688,934.517578 991.950195,934.517578 832.558655,934.517578 
	C833.737976,936.930115 834.408508,938.608459 835.329651,940.135681 
	C840.614624,948.897766 846.197754,957.489014 851.235657,966.389465 
	C863.121338,987.388306 874.750610,1008.532288 886.496460,1029.610352 
	C893.368164,1041.941895 893.379272,1041.952393 907.521851,1041.943848 
	C985.181213,1041.896973 1062.840576,1041.841309 1141.500000,1041.787964 
M1916.876831,369.413971 
	C1913.634155,371.748566 1910.326416,373.998657 1907.159912,376.432404 
	C1893.834961,386.673309 1880.405151,396.786865 1867.328979,407.337738 
	C1862.334106,411.367889 1862.326294,415.401245 1865.671387,421.566345 
	C1870.363281,430.213531 1873.410767,432.239441 1880.067627,430.880798 
	C1883.484985,430.183289 1886.836548,429.168579 1890.244141,428.416870 
	C1907.099609,424.698578 1923.984375,421.111176 1940.809448,417.261383 
	C1944.802734,416.347626 1946.041016,418.178284 1946.294800,421.459259 
	C1947.266846,434.027588 1948.881104,446.603790 1948.868286,459.175659 
	C1948.853638,473.579987 1948.287476,488.117737 1946.210205,502.341797 
	C1944.671509,512.877319 1941.605957,523.625305 1936.944702,533.166748 
	C1930.035156,547.309814 1921.344604,560.614807 1912.970703,574.000427 
	C1906.105713,584.973877 1904.242432,596.078491 1909.872803,608.019958 
	C1911.364380,611.183472 1912.755859,614.415222 1914.514160,617.428345 
	C1921.533691,629.456787 1929.472168,640.681152 1941.681885,648.172668 
	C1946.498169,651.127747 1951.317261,651.621277 1956.391724,649.157043 
	C1971.159912,641.985168 1984.447388,632.807739 1993.016846,618.476135 
	C2003.678589,600.645874 2012.811768,582.102112 2019.836426,562.389648 
	C2029.632690,534.899963 2035.500488,506.785461 2036.404541,477.718262 
	C2037.336792,447.745941 2035.220581,417.933563 2028.982666,388.529449 
	C2025.478027,372.009674 2020.119141,356.193726 2010.575806,342.000946 
	C2008.320557,338.646973 2005.804688,337.054443 2001.727905,336.607056 
	C1998.709717,336.275787 1995.094116,334.964264 1993.112793,332.823273 
	C1987.297485,326.539703 1985.000244,325.838593 1977.060181,329.347107 
	C1954.901733,339.138306 1934.977783,352.254181 1916.876831,369.413971 
z"/>
<path fill="#0A8B3C" opacity="1.000000" stroke="none" 
	d="
M630.640015,1160.339844 
	C565.401306,1050.984985 500.349609,941.942993 435.298248,832.900757 
	C431.713196,826.891357 428.104950,820.895447 424.567383,814.858215 
	C423.772675,813.501831 423.229614,811.998047 422.109344,809.556824 
	C432.213226,809.556824 441.301636,809.566406 450.390045,809.554626 
	C464.004547,809.536987 477.619049,809.487183 491.233551,809.482666 
	C507.174927,809.477356 523.116333,809.513000 539.057678,809.518005 
	C558.657532,809.524170 578.257324,809.508240 597.857178,809.518494 
	C613.798706,809.526855 629.740234,809.585876 645.681763,809.574646 
	C662.288696,809.562927 678.895630,809.501953 695.502563,809.447693 
	C712.622681,809.391785 729.746765,809.129639 746.858093,809.486023 
	C749.044800,809.531555 751.898926,812.334595 753.200989,814.580688 
	C764.232361,833.609985 774.978882,852.804565 785.803955,871.953369 
	C843.364929,973.774963 900.930237,1075.594116 958.481201,1177.421265 
	C993.817078,1239.942383 1029.112427,1302.486450 1064.529419,1364.961670 
	C1065.704346,1367.034180 1067.953979,1369.754395 1069.797485,1369.829102 
	C1071.556641,1369.900391 1074.007935,1367.233276 1075.180542,1365.206421 
	C1086.278442,1346.022217 1097.171875,1326.719849 1108.117188,1307.447510 
	C1186.044189,1170.233521 1263.978882,1033.024048 1341.892700,895.802551 
	C1416.922485,763.660034 1491.994141,631.541138 1566.774414,499.257538 
	C1570.906372,491.948364 1575.270142,489.428833 1583.713379,489.456665 
	C1687.207642,489.798157 1790.703369,489.678986 1894.198730,489.678986 
	C1896.282715,489.678986 1898.366699,489.678986 1901.280640,489.678986 
	C1900.222778,491.924500 1899.718506,493.286316 1898.984741,494.510498 
	C1846.835083,581.527100 1794.639648,668.516174 1742.507812,755.543335 
	C1685.059937,851.444641 1627.674194,947.383179 1570.252197,1043.299927 
	C1512.820923,1139.232056 1455.388428,1235.163574 1397.937012,1331.083740 
	C1339.887573,1428.002197 1281.792480,1524.893311 1223.838867,1621.868896 
	C1221.735718,1625.388184 1219.451172,1626.486816 1215.500000,1626.482788 
	C1115.004639,1626.381470 1014.509094,1626.382324 914.013611,1626.483521 
	C910.199524,1626.487427 908.106201,1625.319824 906.126099,1621.993408 
	C865.145630,1553.150391 824.005615,1484.402466 782.940125,1415.610107 
	C732.215271,1330.636597 681.529663,1245.639526 630.640015,1160.339844 
z"/>
<path fill="#000000" opacity="1.000000" stroke="none" 
	d="
M1527.391846,1847.538574 
	C1499.858765,1835.278931 1474.893188,1819.474854 1451.838745,1800.801392 
	C1432.949951,1785.501709 1415.761230,1768.395874 1400.183838,1749.610596 
	C1363.618774,1705.515259 1339.064087,1655.464844 1325.121948,1600.105225 
	C1321.875610,1587.215332 1318.410889,1574.146973 1317.410889,1560.981201 
	C1316.018311,1542.645752 1317.662842,1524.415283 1327.720581,1507.900635 
	C1380.854614,1420.656616 1433.839722,1333.321899 1486.878906,1246.020142 
	C1492.935425,1236.051025 1499.395508,1226.303833 1504.991577,1216.083130 
	C1517.149902,1193.876587 1536.245361,1180.385620 1559.699951,1173.102417 
	C1579.018799,1167.103271 1598.697510,1162.042480 1618.492676,1157.877563 
	C1630.697388,1155.309448 1643.401611,1154.939575 1655.915283,1154.068359 
	C1666.845825,1153.307495 1677.845825,1152.608032 1688.774902,1153.000488 
	C1702.445801,1153.491455 1716.085083,1155.026611 1729.721436,1156.288086 
	C1757.829346,1158.888184 1784.775513,1166.302368 1811.018799,1176.417480 
	C1838.320435,1186.940674 1863.907959,1200.715576 1887.890381,1217.484131 
	C1905.730591,1229.958130 1922.470947,1243.725464 1937.850464,1259.160522 
	C1967.600098,1289.017090 1991.347534,1323.012817 2009.072388,1361.265991 
	C2020.891968,1386.774902 2029.569336,1413.316040 2034.989746,1440.844727 
	C2037.432617,1453.251709 2039.149902,1465.908447 2039.848999,1478.526611 
	C2040.905396,1497.593872 2041.786011,1516.775513 2040.852905,1535.815918 
	C2040.066650,1551.857056 2036.822998,1567.804077 2034.247925,1583.724854 
	C2030.793457,1605.083496 2024.226440,1625.589722 2016.376465,1645.709473 
	C2004.946045,1675.005981 1989.965332,1702.374146 1972.058228,1728.201782 
	C1956.536743,1750.589111 1938.231812,1770.549316 1918.252686,1788.887817 
	C1899.620239,1805.989990 1879.041748,1820.630249 1857.042969,1833.215088 
	C1827.766724,1849.963257 1796.884277,1862.797607 1763.998291,1870.317627 
	C1749.121338,1873.719482 1733.976074,1876.354248 1718.806763,1877.960327 
	C1702.525269,1879.684204 1686.052124,1880.707520 1669.700317,1880.344849 
	C1653.563721,1879.986572 1637.278809,1878.584717 1621.413452,1875.694580 
	C1601.689209,1872.101562 1582.150391,1867.128540 1562.876587,1861.557739 
	C1550.832764,1858.076904 1539.425293,1852.394531 1527.391846,1847.538574 
z"/>
<path fill="#010101" opacity="1.000000" stroke="none" 
	d="
M103.645561,1582.352539 
	C101.849503,1571.370239 99.608910,1560.832031 98.749557,1550.182373 
	C97.655319,1536.621948 97.603340,1522.973145 97.254654,1509.358521 
	C97.096886,1503.198486 97.169571,1497.023926 97.398949,1490.865723 
	C97.551147,1486.779541 98.166542,1482.710571 98.621162,1478.168579 
	C100.893585,1478.168579 102.517654,1478.168579 104.141724,1478.168579 
	C328.451996,1478.167969 552.762268,1478.184204 777.072449,1478.060913 
	C782.172058,1478.058105 785.217896,1479.432007 787.805176,1483.995728 
	C795.363525,1497.328003 803.477600,1510.344360 811.317200,1523.518311 
	C820.865845,1539.564209 821.463074,1556.825195 818.709351,1574.753540 
	C811.461609,1621.939209 793.783691,1665.192505 769.489502,1705.911865 
	C758.601257,1724.161499 745.939148,1741.168579 731.956604,1757.253540 
	C695.543579,1799.142090 651.837769,1830.910156 600.844604,1852.630249 
	C578.894775,1861.979614 556.263245,1869.423584 532.676636,1873.368896 
	C518.066895,1875.812744 503.356476,1877.987183 488.601990,1879.140991 
	C473.228210,1880.343384 457.721649,1880.910156 442.320953,1880.375977 
	C429.527588,1879.932251 416.793823,1877.563110 404.051239,1875.911255 
	C384.242523,1873.343628 365.013092,1868.243286 346.137085,1861.885132 
	C308.675659,1849.266846 274.221619,1830.989136 242.730255,1806.987793 
	C225.194855,1793.623047 208.940094,1778.870483 194.161469,1762.647095 
	C169.698364,1735.792480 149.636871,1705.856323 134.084396,1672.922119 
	C121.083847,1645.391846 111.335587,1616.790039 104.587997,1587.134277 
	C104.258919,1585.688110 104.069229,1584.210205 103.645561,1582.352539 
z"/>
<path fill="#0A8B3C" opacity="1.000000" stroke="none" 
	d="
M334.000580,1465.258545 
	C259.685822,1465.250610 185.870987,1465.186035 112.056244,1465.242310 
	C80.744621,1465.266113 49.433102,1465.526611 18.121761,1465.717529 
	C9.985791,1465.767090 9.736971,1465.740234 9.737520,1457.479736 
	C9.740639,1410.662720 9.786281,1363.845703 9.906136,1317.028931 
	C9.936269,1305.258789 14.594144,1294.954590 21.030741,1285.435181 
	C51.397552,1240.524170 90.258911,1204.126343 134.541504,1173.355835 
	C201.858643,1126.579468 276.139771,1096.177734 356.391235,1080.070923 
	C393.423767,1072.638184 430.860687,1068.469604 468.591614,1069.486816 
	C492.337860,1070.127075 516.015503,1073.281006 539.726929,1075.270996 
	C544.103271,1075.638306 546.840820,1077.852173 549.098633,1081.652710 
	C602.876831,1172.178101 656.758972,1262.641602 710.619019,1353.118408 
	C731.583862,1388.336182 752.543274,1423.557129 773.494934,1458.782715 
	C774.489441,1460.454712 775.383179,1462.186890 777.074341,1465.250732 
	C628.737976,1465.250732 481.619263,1465.250732 334.000580,1465.258545 
z"/>
<path fill="#010101" opacity="1.000000" stroke="none" 
	d="
M663.985535,789.864502 
	C643.677856,789.973877 623.860962,789.804199 604.059387,790.274841 
	C585.945557,790.705200 567.850159,791.876404 549.742981,792.632629 
	C529.645081,793.471985 509.547546,794.373413 489.441254,794.947083 
	C470.632660,795.483887 451.813446,795.810669 432.997681,795.876343 
	C421.185760,795.917542 409.289246,796.075012 397.576202,794.821045 
	C375.886017,792.499023 355.074432,786.905640 337.525757,773.043274 
	C333.549377,769.902161 330.078369,765.853149 327.182983,761.663452 
	C319.464478,750.494568 313.237579,738.458374 312.595551,724.614746 
	C312.019348,712.190857 314.778442,700.167175 319.685089,688.698120 
	C329.289398,666.248230 345.630646,648.794739 363.050018,632.554749 
	C378.466278,618.182251 394.732056,604.574707 411.614075,591.955566 
	C435.766113,573.902161 462.585236,561.010376 492.867615,556.947510 
	C509.402344,554.729065 525.983765,555.313110 542.558594,557.737366 
	C578.515015,562.996521 609.305054,578.886597 635.853943,603.117920 
	C650.718445,616.684814 665.011902,630.920715 678.975952,645.420288 
	C697.822754,664.989990 720.546875,677.836060 745.979736,686.543884 
	C770.817688,695.047913 796.549316,699.167908 822.436768,702.571960 
	C851.357117,706.374756 880.364014,709.601990 909.183594,714.049866 
	C921.408508,715.936584 933.518250,719.387939 943.856567,727.220459 
	C953.912781,734.839233 955.948547,741.757324 948.960510,755.527710 
	C940.792908,771.622864 926.221313,779.264160 909.710083,782.838196 
	C893.400085,786.368774 876.757874,789.566345 860.149414,790.270996 
	C823.746033,791.815369 787.271057,792.160156 750.826782,792.097351 
	C722.044312,792.047729 693.264221,790.658691 663.985535,789.864502 
z"/>
<path fill="#030303" opacity="1.000000" stroke="none" 
	d="
M1141.000000,1041.788330 
	C1062.840576,1041.841309 985.181213,1041.896973 907.521851,1041.943848 
	C893.379272,1041.952393 893.368164,1041.941895 886.496460,1029.610352 
	C874.750610,1008.532288 863.121338,987.388306 851.235657,966.389465 
	C846.197754,957.489014 840.614624,948.897766 835.329651,940.135681 
	C834.408508,938.608459 833.737976,936.930115 832.558655,934.517578 
	C991.950195,934.517578 1150.580688,934.517578 1309.792480,934.517578 
	C1309.161499,936.179626 1308.881958,937.438354 1308.255493,938.490601 
	C1288.643677,971.426147 1268.947754,1004.311951 1249.434692,1037.305908 
	C1247.474121,1040.621094 1245.283813,1041.909180 1241.488770,1041.894775 
	C1208.159424,1041.769043 1174.829712,1041.802002 1141.000000,1041.788330 
z"/>
<path fill="#020202" opacity="1.000000" stroke="none" 
	d="
M1917.151367,369.187378 
	C1934.977783,352.254181 1954.901733,339.138306 1977.060181,329.347107 
	C1985.000244,325.838593 1987.297485,326.539703 1993.112793,332.823273 
	C1995.094116,334.964264 1998.709717,336.275787 2001.727905,336.607056 
	C2005.804688,337.054443 2008.320557,338.646973 2010.575806,342.000946 
	C2020.119141,356.193726 2025.478027,372.009674 2028.982666,388.529449 
	C2035.220581,417.933563 2037.336792,447.745941 2036.404541,477.718262 
	C2035.500488,506.785461 2029.632690,534.899963 2019.836426,562.389648 
	C2012.811768,582.102112 2003.678589,600.645874 1993.016846,618.476135 
	C1984.447388,632.807739 1971.159912,641.985168 1956.391724,649.157043 
	C1951.317261,651.621277 1946.498169,651.127747 1941.681885,648.172668 
	C1929.472168,640.681152 1921.533691,629.456787 1914.514160,617.428345 
	C1912.755859,614.415222 1911.364380,611.183472 1909.872803,608.019958 
	C1904.242432,596.078491 1906.105713,584.973877 1912.970703,574.000427 
	C1921.344604,560.614807 1930.035156,547.309814 1936.944702,533.166748 
	C1941.605957,523.625305 1944.671509,512.877319 1946.210205,502.341797 
	C1948.287476,488.117737 1948.853638,473.579987 1948.868286,459.175659 
	C1948.881104,446.603790 1947.266846,434.027588 1946.294800,421.459259 
	C1946.041016,418.178284 1944.802734,416.347626 1940.809448,417.261383 
	C1923.984375,421.111176 1907.099609,424.698578 1890.244141,428.416870 
	C1886.836548,429.168579 1883.484985,430.183289 1880.067627,430.880798 
	C1873.410767,432.239441 1870.363281,430.213531 1865.671387,421.566345 
	C1862.326294,415.401245 1862.334106,411.367889 1867.328979,407.337738 
	C1880.405151,396.786865 1893.834961,386.673309 1907.159912,376.432404 
	C1910.326416,373.998657 1913.634155,371.748566 1917.151367,369.187378 
z"/>
</svg>